<svg width="160" height="32" viewBox="0 0 160 32" fill="none" xmlns="http://www.w3.org/2000/svg">
  <rect x="1" y="1" width="30" height="30" rx="10" fill="#FDD458"/>
  <path d="M10.5 11.5C10.5 9.84315 11.8431 8.5 13.5 8.5H21.5V11.5H13.5V14.5H19.5C21.1569 14.5 22.5 15.8431 22.5 17.5V20.5C22.5 22.1569 21.1569 23.5 19.5 23.5H10.5V20.5H19.5V17.5H13.5C11.8431 17.5 10.5 16.1569 10.5 14.5V11.5Z" fill="#111111"/>
  <path d="M41 9.5H45.4L49.72 21.22H49.8L54.12 9.5H58.48L52.08 25H47.4L41 9.5Z" fill="white"/>
  <path d="M61.12 25V9.5H72.6V12.82H65.36V15.66H71.88V18.84H65.36V21.68H72.6V25H61.12Z" fill="white"/>
  <path d="M76.0108 25V9.5H80.2508V21.56H87.1708V25H76.0108Z" fill="white"/>
  <path d="M90.1248 25V9.5H101.605V12.82H94.3648V15.66H100.885V18.84H94.3648V21.68H101.605V25H90.1248Z" fill="white"/>
  <path d="M105.015 25V9.5H109.255V15.3H115.175V9.5H119.415V25H115.175V18.76H109.255V25H105.015Z" fill="white"/>
  <path d="M127.466 25V12.94H122.926V9.5H136.246V12.94H131.706V25H127.466Z" fill="white"/>
  <path d="M141.444 25.28C137.604 25.28 134.704 23.33 134.704 19.91H138.444C138.444 21.64 139.794 22.36 141.524 22.36C143.014 22.36 143.914 21.84 143.914 20.82C143.914 19.55 142.534 19.22 140.474 18.62C137.724 17.81 135.184 16.73 135.184 13.76C135.184 10.55 137.814 9.22 141.324 9.22C144.954 9.22 147.734 11.08 147.844 14.1H144.084C143.934 12.89 142.954 12.18 141.344 12.18C140.054 12.18 139.254 12.66 139.254 13.56C139.254 14.62 140.204 14.97 142.114 15.54C145.114 16.42 148.034 17.3 148.034 20.48C148.034 23.71 145.434 25.28 141.444 25.28Z" fill="white"/>
</svg>
